<svg width="140" height="28" viewBox="0 0 140 28" fill="none" xmlns="http://www.w3.org/2000/svg">
<path d="M16.8035 27.0226H0V0H16.0452C17.8812 0 19.4245 0.255438 20.6751 0.766314C21.9258 1.2503 22.8704 1.98973 23.509 2.98459C24.1476 3.95257 24.4669 5.14909 24.4669 6.57417C24.4669 8.24123 23.988 9.63942 23.03 10.7687C22.0721 11.8711 20.4756 12.503 18.2404 12.6643V13.0273C20.7151 13.2156 22.5511 13.8878 23.7485 15.044C24.9725 16.2001 25.5845 17.6924 25.5845 19.5208C25.5845 21.0535 25.2652 22.3844 24.6266 23.5137C23.988 24.643 23.0167 25.5169 21.7129 26.1353C20.4357 26.7269 18.7992 27.0226 16.8035 27.0226ZM5.98701 15.7296V21.5778H16.0851C17.3091 21.5778 18.1872 21.3627 18.7194 20.9325C19.2516 20.4754 19.5177 19.7091 19.5177 18.6335C19.5177 17.558 19.2516 16.8051 18.7194 16.3749C18.1872 15.9447 17.3091 15.7296 16.0851 15.7296H5.98701ZM5.98701 5.44486V10.7284H15.3667C16.4842 10.7284 17.2825 10.5267 17.7615 10.1234C18.2404 9.6932 18.4799 9.02099 18.4799 8.10679C18.4799 7.19259 18.2271 6.52039 17.7216 6.09018C17.216 5.65997 16.4044 5.44486 15.2868 5.44486H5.98701Z" fill="white"/>
<path d="M38.0119 27.426C35.8034 27.426 33.8476 27.0495 32.1446 26.2967C30.4417 25.5438 29.1245 24.3876 28.1932 22.8281C27.2619 21.2686 26.7962 19.3057 26.7962 16.9396C26.7962 14.7885 27.2619 12.9332 28.1932 11.3737C29.1245 9.78731 30.4151 8.56389 32.0648 7.70347C33.7412 6.84305 35.6836 6.41284 37.8922 6.41284C40.0741 6.41284 41.9766 6.78927 43.5998 7.54214C45.2495 8.29501 46.5268 9.41087 47.4315 10.8897C48.3362 12.3417 48.7885 14.1163 48.7885 16.2136C48.7885 16.5631 48.7752 16.8858 48.7486 17.1816C48.722 17.4773 48.6821 17.8 48.6289 18.1495H30.6678V14.9633H44.398L43.041 16.9396C43.041 16.6707 43.041 16.4152 43.041 16.1733C43.041 15.9313 43.041 15.6893 43.041 15.4473C43.041 13.9146 42.6286 12.8122 41.8037 12.14C40.9788 11.4678 39.635 11.1317 37.7724 11.1317C35.7501 11.1317 34.3399 11.535 33.5416 12.3417C32.7433 13.1214 32.3442 14.3717 32.3442 16.0926V17.6252C32.3442 19.3461 32.7433 20.6098 33.5416 21.4165C34.3399 22.1962 35.7634 22.5861 37.8123 22.5861C39.5685 22.5861 40.8058 22.3575 41.5243 21.9004C42.2427 21.4433 42.6019 20.7846 42.6019 19.9242V19.5208H48.589V19.9645C48.589 21.4165 48.1499 22.7071 47.2718 23.8364C46.3937 24.9657 45.1564 25.853 43.5599 26.4983C41.9899 27.1168 40.1406 27.426 38.0119 27.426Z" fill="white"/>
<path d="M61.5452 27.426C59.3367 27.426 57.3809 27.0495 55.6779 26.2967C53.975 25.5438 52.6578 24.3876 51.7265 22.8281C50.7952 21.2686 50.3296 19.3057 50.3296 16.9396C50.3296 14.7885 50.7952 12.9332 51.7265 11.3737C52.6578 9.78731 53.9484 8.56389 55.5981 7.70347C57.2745 6.84305 59.2169 6.41284 61.4255 6.41284C63.6074 6.41284 65.5099 6.78927 67.1331 7.54214C68.7828 8.29501 70.0601 9.41087 70.9648 10.8897C71.8695 12.3417 72.3218 14.1163 72.3218 16.2136C72.3218 16.5631 72.3085 16.8858 72.2819 17.1816C72.2553 17.4773 72.2154 17.8 72.1622 18.1495H54.2012V14.9633H67.9314L66.5743 16.9396C66.5743 16.6707 66.5743 16.4152 66.5743 16.1733C66.5743 15.9313 66.5743 15.6893 66.5743 15.4473C66.5743 13.9146 66.1619 12.8122 65.337 12.14C64.5121 11.4678 63.1684 11.1317 61.3057 11.1317C59.2835 11.1317 57.8732 11.535 57.0749 12.3417C56.2766 13.1214 55.8775 14.3717 55.8775 16.0926V17.6252C55.8775 19.3461 56.2766 20.6098 57.0749 21.4165C57.8732 22.1962 59.2968 22.5861 61.3457 22.5861C63.1018 22.5861 64.3392 22.3575 65.0576 21.9004C65.776 21.4433 66.1353 20.7846 66.1353 19.9242V19.5208H72.1223V19.9645C72.1223 21.4165 71.6832 22.7071 70.8051 23.8364C69.927 24.9657 68.6897 25.853 67.0932 26.4983C65.5233 27.1168 63.6739 27.426 61.5452 27.426Z" fill="white"/>
<path d="M80.4486 27.0226H74.4616V6.81616H80.0095V12.5837L80.4486 12.7853V27.0226ZM80.4486 15.3263H79.2512V12.1804H80.3688C80.555 11.0779 80.9142 10.0965 81.4464 9.2361C82.0052 8.34879 82.7503 7.66314 83.6816 7.17915C84.6129 6.66827 85.7438 6.41284 87.0742 6.41284C88.5909 6.41284 89.8016 6.73549 90.7063 7.38081C91.6376 7.99924 92.3162 8.84622 92.7419 9.92175C93.1676 10.9704 93.3805 12.1535 93.3805 13.471V16.8186H87.3935V14.7213C87.3935 13.592 87.1407 12.7853 86.6352 12.3014C86.1562 11.7905 85.3047 11.535 84.0807 11.535C82.7503 11.535 81.8056 11.8443 81.2468 12.4627C80.7147 13.0811 80.4486 14.0356 80.4486 15.3263Z" fill="white"/>
<path d="M109.239 27.0226H104.29C101.948 27.0226 100.112 26.4445 98.7816 25.2884C97.4512 24.1322 96.7859 22.2769 96.7859 19.7225V2.90392H102.773V19.0368C102.773 20.0586 102.986 20.7442 103.412 21.0938C103.864 21.4165 104.609 21.5778 105.647 21.5778H109.239V27.0226ZM109.239 11.8174H93.6328V6.81616H109.239V11.8174Z" fill="white"/>
<path d="M117.069 27.0226H111.082V6.81616H117.069V27.0226ZM117.069 4.75921H111.082V0H117.069V4.75921Z" fill="white"/>
<path d="M140 27.0226H134.412V22.2231L134.093 22.1424V15.0843C134.093 13.7668 133.76 12.8794 133.095 12.4224C132.456 11.9653 131.339 11.7367 129.742 11.7367C128.226 11.7367 127.135 11.9653 126.469 12.4224C125.804 12.8794 125.472 13.6861 125.472 14.8423V15.0036H119.445V14.8826C119.445 13.2156 119.884 11.7501 120.762 10.4864C121.64 9.19577 122.877 8.2009 124.474 7.50181C126.097 6.77583 127.999 6.41284 130.181 6.41284C132.416 6.41284 134.252 6.77583 135.689 7.50181C137.153 8.22779 138.231 9.24954 138.922 10.5671C139.641 11.8577 140 13.3903 140 15.1649V27.0226ZM125.95 27.426C123.795 27.426 122.105 26.942 120.881 25.974C119.657 25.006 119.045 23.6885 119.045 22.0214C119.045 20.9997 119.285 20.1258 119.764 19.3998C120.243 18.6739 120.961 18.0958 121.919 17.6656C122.877 17.2085 124.075 16.8992 125.511 16.7379L134.492 15.8103V19.2788L127.148 20.1258C126.429 20.1796 125.897 20.3275 125.551 20.5695C125.232 20.7846 125.072 21.1341 125.072 21.6181C125.072 22.1559 125.285 22.5458 125.711 22.7878C126.137 23.0297 126.789 23.1507 127.667 23.1507C129.104 23.1507 130.288 23.0163 131.219 22.7474C132.15 22.4785 132.855 22.0483 133.334 21.4568C133.84 20.8384 134.093 20.0183 134.093 18.9965L134.652 18.9562V22.3844H134.093C133.64 23.9439 132.722 25.1808 131.339 26.095C129.982 26.9823 128.186 27.426 125.95 27.426Z" fill="white"/>
</svg>
